<svg xmlns="http://www.w3.org/2000/svg" viewBox="0 0 340 340"><defs><style>.cls-1{fill:none;}.cls-2{fill:#fff;}.cls-3{font-size:124.85px;}.cls-3,.cls-5{fill:#1d1d1b;font-family:Exmouth;}.cls-4{fill:#d63715;}.cls-5{font-size:27.25px;}.cls-6{letter-spacing:-0.06em;}</style></defs><g id="Calque_2" data-name="Calque 2"><g id="Calque_1-2" data-name="Calque 1"><rect class="cls-1" width="340" height="340"/><circle class="cls-2" cx="170" cy="170" r="170"/><rect class="cls-2" y="67.7" width="340" height="203" rx="101.5"/><text class="cls-3" transform="translate(21.17 175.72)">Grace</text><path class="cls-4" d="M319.32,137.74a53.51,53.51,0,0,1-1.83,9.81,73.2,73.2,0,0,1-3.32,9.46,81.36,81.36,0,0,1-10.27,17.43,83.53,83.53,0,0,1-32.07,24.95c-.79.34-1.55.72-2.36,1l-2.46.92c-1.63.67-3.32,1.11-5,1.63-.83.27-1.68.47-2.52.66l-2.55.59c-1.7.34-3.4.6-5.11.9a113.88,113.88,0,0,1-20.32.82c-13.37-.53-26.27-2.53-39-3.86s-25.48-2-38.06-1.06a120.66,120.66,0,0,0-36.56,8.83c-5.75,2.49-11.55,5.51-17.3,8.41L92,222.78c-2.79,1.6-5.63,3.14-8.38,4.79a165.24,165.24,0,0,0-16,10.69,62.35,62.35,0,0,0-7.07,6.39,17.44,17.44,0,0,0-1.54,1.8,15.73,15.73,0,0,0-1.34,1.92c-.18.33-.42.66-.57,1l-.46,1c-.1.35-.21.71-.28,1.07l-.06.53c0,.13,0,.37,0,.43l-.93.38a5.27,5.27,0,0,1,0-2.77l.39-1.23c.14-.41.35-.77.53-1.17a16.41,16.41,0,0,1,1.25-2.2,18.27,18.27,0,0,1,1.44-2,47.24,47.24,0,0,1,3.23-3.8c1.13-1.22,2.36-2.31,3.54-3.48,2.46-2.18,5-4.35,7.58-6.32s5.27-3.91,8-5.81,5.46-3.61,8.2-5.42l8.36-5.13c2.81-1.69,5.68-3.24,8.52-4.87s5.8-3.13,8.77-4.66a120.42,120.42,0,0,1,38.43-11,157,157,0,0,1,19.95-1c6.64.07,13.24.47,19.78,1s13,1.22,19.44,1.81,12.79,1.16,19.09,1.33a112.82,112.82,0,0,0,18.55-.87c1.49-.27,3-.5,4.48-.81l2.2-.52a20.59,20.59,0,0,0,2.18-.58c1.42-.45,2.88-.82,4.26-1.4l2.09-.79c.7-.28,1.4-.61,2.11-.91a93.6,93.6,0,0,0,30.07-21,101.75,101.75,0,0,0,11.63-14.7,99.42,99.42,0,0,0,8.92-17Z"/><text class="cls-5" transform="translate(120.96 236.21) scale(0.68 1)">Education-Volenté-<tspan class="cls-6" x="152.64" y="0">P</tspan><tspan x="174.76" y="0">erformance</tspan></text><polyline class="cls-2" points="182.88 191.75 183.98 195.14 185.65 191.75 187.28 195.14 188.74 191.75 190.16 195.14 192.06 191.75"/><polyline class="cls-2" points="82.89 222.74 85.1 224.29 84.56 221.48 87.09 222.79 86.44 220.07 88.84 221.48 88.45 218.56"/></g></g></svg>